<?xml version="1.0" encoding="utf-8"?>
<!-- Generator: Adobe Illustrator 22.0.0, SVG Export Plug-In . SVG Version: 6.00 Build 0)  -->
<svg version="1.1" id="Layer_1" xmlns="http://www.w3.org/2000/svg" xmlns:xlink="http://www.w3.org/1999/xlink" x="0px" y="0px"
	 viewBox="0 0 492 492" style="enable-background:new 0 0 492 492;" xml:space="preserve">
<style type="text/css">
	.st0{fill:#0F1959;}
</style>
<g>
	<g>
		<path class="st0" d="M484.1,125L468,108.8c-5.1-5.1-11.8-7.9-19-7.9c-7.2,0-14,2.8-19,7.9L246.1,292.6L62.1,108.6
			c-5.1-5.1-11.8-7.9-19-7.9s-14,2.8-19,7.9L7.9,124.7c-10.5,10.5-10.5,27.6,0,38.1L227,382.7c5.1,5.1,11.8,8.6,19.1,8.6h0.1
			c7.2,0,14-3.6,19-8.6l218.9-219.3c5.1-5.1,7.9-12,7.9-19.2C492,136.9,489.2,130,484.1,125z"/>
	</g>
</g>
</svg>
