<?xml version="1.0" encoding="utf-8"?>
<!-- Generator: Adobe Illustrator 22.0.0, SVG Export Plug-In . SVG Version: 6.00 Build 0)  -->
<svg version="1.1" id="Layer_1" xmlns="http://www.w3.org/2000/svg" xmlns:xlink="http://www.w3.org/1999/xlink" x="0px" y="0px"
	 viewBox="0 0 653.1 492" style="enable-background:new 0 0 653.1 492;" xml:space="preserve">
<style type="text/css">
	.st0{fill:#0F1959;}
</style>
<path class="st0" d="M145.7,27.7l0.2-0.8v329.2l-83.7-83.5c-5.1-5.1-11.9-7.8-19.1-7.8c-7.2,0-14,2.8-19.1,7.8L7.9,288.7
	c-5.1,5.1-7.9,11.8-7.9,19c0,7.2,2.8,14,7.8,19l157.4,157.4c5.1,5.1,11.9,7.9,19.1,7.8c7.2,0,14-2.8,19.1-7.8l157.4-157.4
	c5.1-5.1,7.8-11.8,7.8-19c0-7.2-2.8-13.9-7.8-19l-16.1-16.1c-5.1-5.1-11.8-7.8-19-7.8c-7.2,0-13.6,2.8-18.7,7.8l-84.3,84.7v-330
	C222.7,12.5,210,0,195.1,0h-22.8C157.5,0,145.7,12.8,145.7,27.7z"/>
<path class="st0" d="M368.7,49.8V27c0-14.8,12.1-27,27-27h230.5c14.8,0,27,12.1,27,27v22.9c0,14.8-12.1,27-27,27H395.6
	C380.8,76.8,368.7,64.7,368.7,49.8z"/>
<path class="st0" d="M368.7,229v-22.9c0-14.8,12.1-27,27-27h230.5c14.8,0,27,12.1,27,27V229c0,14.8-12.1,27-27,27H395.6
	C380.8,256,368.7,243.9,368.7,229z"/>
<path class="st0" d="M368.7,408.2v-22.9c0-14.8,12.1-27,27-27h230.5c14.8,0,27,12.1,27,27v22.9c0,14.8-12.1,27-27,27H395.6
	C380.8,435.2,368.7,423.1,368.7,408.2z"/>
</svg>
